<svg width="37" height="37" viewBox="0 0 37 37" fill="none" xmlns="http://www.w3.org/2000/svg">
<path d="M16.9475 4.63294C17.9751 3.75427 19.658 3.75427 20.7005 4.63294L23.0536 6.65836C23.5003 7.04557 24.3343 7.35832 24.93 7.35832H27.4618C29.0404 7.35832 30.3361 8.65399 30.3361 10.2326V12.7644C30.3361 13.3452 30.6489 14.1941 31.0361 14.6409L33.0615 16.9939C33.9402 18.0215 33.9402 19.7044 33.0615 20.7469L31.0361 23.1C30.6489 23.5467 30.3361 24.3807 30.3361 24.9764V27.5082C30.3361 29.0868 29.0404 30.3825 27.4618 30.3825H24.93C24.3492 30.3825 23.5003 30.6953 23.0536 31.0825L20.7005 33.1079C19.6729 33.9866 17.99 33.9866 16.9475 33.1079L14.5945 31.0825C14.1477 30.6953 13.3137 30.3825 12.718 30.3825H10.1416C8.56292 30.3825 7.26725 29.0868 7.26725 27.5082V24.9615C7.26725 24.3807 6.9545 23.5467 6.58218 23.1L4.57166 20.732C3.70788 19.7044 3.70788 18.0364 4.57166 17.0088L6.58218 14.6409C6.9545 14.1941 7.26725 13.3601 7.26725 12.7793V10.2177C7.26725 8.63909 8.56292 7.34342 10.1416 7.34342H12.718C13.2988 7.34342 14.1477 7.03068 14.5945 6.64346L16.9475 4.63294Z" fill="#5768FF"/>
<path d="M17.0074 23.5779C16.7096 23.5779 16.4266 23.4588 16.2181 23.2503L12.6141 19.6462C12.1822 19.2143 12.1822 18.4995 12.6141 18.0676C13.046 17.6357 13.7608 17.6357 14.1927 18.0676L17.0074 20.8823L23.4113 14.4784C23.8432 14.0465 24.5581 14.0465 24.99 14.4784C25.4218 14.9103 25.4218 15.6252 24.99 16.0571L17.7968 23.2503C17.5883 23.4588 17.3053 23.5779 17.0074 23.5779Z" fill="white"/>
</svg>
